<?xml version="1.0" standalone="no"?><!DOCTYPE svg PUBLIC "-//W3C//DTD SVG 1.1//EN" "http://www.w3.org/Graphics/SVG/1.1/DTD/svg11.dtd"><svg t="1651761997761" class="icon" viewBox="0 0 1024 1024" version="1.1" xmlns="http://www.w3.org/2000/svg" p-id="6739" xmlns:xlink="http://www.w3.org/1999/xlink" width="64" height="64"><defs><style type="text/css">@font-face { font-family: feedback-iconfont; src: url("//at.alicdn.com/t/font_1031158_u69w8yhxdu.woff2?t=1630033759944") format("woff2"), url("//at.alicdn.com/t/font_1031158_u69w8yhxdu.woff?t=1630033759944") format("woff"), url("//at.alicdn.com/t/font_1031158_u69w8yhxdu.ttf?t=1630033759944") format("truetype"); }
</style></defs><path d="M512 73.142857c241.371429 0 438.857143 197.485714 438.857143 438.857143s-197.485714 438.857143-438.857143 438.857143-438.857143-197.485714-438.857143-438.857143 197.485714-438.857143 438.857143-438.857143m0-73.142857C226.742857 0 0 226.742857 0 512s226.742857 512 512 512 512-226.742857 512-512-226.742857-512-512-512z" p-id="6740" fill="#e6e6e6"></path><path d="M512 219.428571c-21.942857 0-36.571429 14.628571-36.571429 36.571429v512c0 21.942857 14.628571 36.571429 36.571429 36.571429s36.571429-14.628571 36.571429-36.571429v-512c0-21.942857-14.628571-36.571429-36.571429-36.571429z" p-id="6741" fill="#e6e6e6"></path><path d="M768 475.428571h-512c-21.942857 0-36.571429 14.628571-36.571429 36.571429s14.628571 36.571429 36.571429 36.571429h512c21.942857 0 36.571429-14.628571 36.571429-36.571429s-14.628571-36.571429-36.571429-36.571429z" p-id="6742" fill="#e6e6e6"></path></svg>